<?xml version="1.0" encoding="utf-8"?>
<!-- Generator: Adobe Illustrator 21.0.0, SVG Export Plug-In . SVG Version: 6.00 Build 0)  -->
<svg version="1.1" id="圖層_1" xmlns="http://www.w3.org/2000/svg" xmlns:xlink="http://www.w3.org/1999/xlink" x="0px" y="0px"
	 viewBox="0 0 281 64" style="enable-background:new 0 0 281 64;" xml:space="preserve">
<style type="text/css">
	.st0{fill:#6F9AB6;}
	.st1{fill-rule:evenodd;clip-rule:evenodd;fill:#221815;}
	.st2{fill-rule:evenodd;clip-rule:evenodd;fill:#E50012;}
	.st3{fill:#221815;}
	.st4{fill:#E50012;}
</style>
<polygon class="st0" points="42.7,29.3 28,39.1 28,9.8 42.7,0 "/>
<polygon class="st0" points="44,29.3 58.7,39.1 58.7,9.8 44,0 "/>
<polygon class="st0" points="26.8,41.7 42.7,49.3 17,64 1.1,56.3 "/>
<polygon class="st0" points="25.1,29.8 2.3,43 0,54.5 25.1,39.9 "/>
<polygon class="st0" points="59.9,41.7 44,49.3 69.7,64 85.6,56.3 "/>
<polygon class="st0" points="62,29.8 84.9,43 87.2,54.5 62,39.9 "/>
<polygon class="st1" points="281,49.5 272,49.5 263.5,27 255,49.5 246,49.5 258.8,15.6 268.2,15.6 "/>
<polygon class="st2" points="148.2,37.4 148.2,26.3 160.1,31.9 "/>
<path class="st1" d="M130.8,22.1l-7.4,2.3c-1-2.8-3.1-4.2-6.3-4.2c-3.5,0-5.2,1.1-5.2,3.2c0,0.8,0.3,1.6,1,2.1
	c0.7,0.6,2.1,1.1,4.4,1.5c3.8,0.7,6.6,1.5,8.3,2.2c1.8,0.7,3.3,1.9,4.5,3.6c1.2,1.6,1.8,3.5,1.8,5.5c0,3.2-1.3,5.9-3.9,8.2
	c-2.6,2.3-6.4,3.5-11.5,3.5c-3.8,0-7.1-0.8-9.8-2.5c-2.7-1.6-4.5-4.1-5.3-7.3l8.1-1.7c0.9,3.3,3.4,4.9,7.6,4.9c2,0,3.5-0.4,4.5-1.1
	c1-0.7,1.5-1.6,1.5-2.6c0-1-0.4-1.8-1.3-2.4c-0.9-0.6-2.6-1.1-5.2-1.6c-4.8-0.9-8.1-2.2-10.1-3.8c-2-1.6-3-4-3-7
	c0-3.1,1.2-5.8,3.6-7.9c2.4-2.2,5.7-3.2,9.8-3.2C124,13.9,128.7,16.6,130.8,22.1z"/>
<polygon class="st1" points="178.2,42.6 193.1,42.6 193.1,49.5 169.4,49.5 169.4,14.4 178.2,14.4 "/>
<rect x="197.6" y="14.4" class="st1" width="8.7" height="35.1"/>
<path class="st1" d="M243.8,27.5l-9.1,0.5c-0.1-5-2.2-7.4-6.2-7.4c-4.6,0-6.8,3.8-6.8,11.5c0,4.4,0.6,7.4,1.9,9
	c1.2,1.6,3,2.4,5.2,2.4c3.6,0,5.8-2.2,6.6-6.6l8.5,0.5c-0.5,4.2-2.2,7.4-5,9.6c-2.8,2.2-6.2,3.3-10.2,3.3c-4.9,0-8.9-1.6-12-4.8
	C213.5,42,212,37.6,212,32c0-5.3,1.5-9.6,4.5-13c3-3.4,7.1-5.1,12.2-5.1C237.6,13.9,242.7,18.4,243.8,27.5z"/>
<polygon class="st3" points="163.3,14.4 136.7,14.4 136.7,49.5 163.3,49.5 163.3,42.6 145.5,42.6 145.5,21.1 163.3,21.1 "/>
<polygon class="st4" points="266.8,49.5 258.4,49.5 262.7,38.1 "/>
</svg>
